# AST/ASF file generated using VICON BodyLanguage
# -----------------------------------------------
:version 1.10
:name VICON
:units
  mass 1.0
  length 0.45
  angle deg
:documentation
   .ast/.asf automatically generated from VICON data using
   VICON BodyBuilder and BodyLanguage model FoxedUp or BRILLIANT.MOD
:root
   order TX TY TZ RX RY RZ
   axis XYZ
   position 0 0 0  
   orientation 0 0 0 
:bonedata
  begin
     id 1 
     name lhipjoint
     direction 0.602128 -0.715006 0.355257 
     length 2.21237 
     axis 0 0 0  XYZ
  end
  begin
     id 2 
     name lfemur
     direction 0.34202 -0.939693 0  
     length 6.71649  
     axis 0 0 20  XYZ
    dof rx ry rz
    limits (-160.0 20.0)
           (-70.0 70.0)
           (-60.0 70.0)
  end
  begin
     id 3 
     name ltibia
     direction 0.34202 -0.939693 0   
     length 6.97123   
     axis 0 0 20   XYZ
    dof rx
    limits (-10.0 170.0)
  end
  begin
     id 4 
     name lfoot
     direction 0.0655697 -0.180151 0.981451   
     length 1.80924   
     axis -90 7.62852e-016 20   XYZ
    dof rx rz
    limits (-45.0 90.0)
           (-70.0 20.0)
  end
  begin
     id 5 
     name ltoes
     direction 1.53545e-011 -4.21827e-011 1   
     length 0.916331   
     axis -90 7.62852e-016 20   XYZ
    dof rx
    limits (-90.0 20.0)
  end
  begin
     id 6 
     name rhipjoint
     direction -0.625414 -0.698792 0.347201   
     length 2.2637  
     axis 0 0 0  XYZ 
  end
  begin
     id 7 
     name rfemur
     direction -0.34202 -0.939693 0   
     length 7.07595   
     axis 0 0 -20   XYZ
    dof rx ry rz
    limits (-160.0 20.0)
           (-70.0 70.0)
           (-70.0 60.0)
  end
  begin
     id 8 
     name rtibia
     direction -0.34202 -0.939693 0   
     length 7.22924   
     axis 0 0 -20   XYZ
    dof rx
    limits (-10.0 170.0)
 end
 begin
     id 9 
     name rfoot
     direction -0.0766747 -0.210662 0.974547   
     length 1.98482  
     axis -90 -7.62852e-016 -20   XYZ
    dof rx rz
    limits (-45.0 90.0)
           (-20.0 70.0)
  end
  begin
     id 10 
     name rtoes
     direction -1.53532e-011 -4.21867e-011 1   
     length 0.999842   
     axis -90 -7.62852e-016 -20   XYZ
    dof rx
    limits (-90.0 20.0)
  end
  begin
     id 11 
     name lowerback
     direction -0.0224668 0.997354 -0.0691422   
     length 2.09945   
     axis 0 0 0   XYZ
    dof rx ry rz
    limits (-20.0 45.0)
           (-30.0 30.0)
           (-30.0 30.0)
  end
  begin
     id 12 
     name upperback
     direction 0.0134698 0.998451 -0.0539888   
     length 2.09758   
     axis 0 0 0   XYZ
    dof rx ry rz
    limits (-20.0 45.0)
           (-30.0 30.0)
           (-30.0 30.0)
  end
  begin
     id 13 
     name thorax
     direction 0.0241905 0.99948 -0.0213333   
     length 2.10428   
     axis 0 0 0   XYZ
    dof rx ry rz
    limits (-20.0 45.0)
           (-30.0 30.0)
           (-30.0 30.0)
  end
  begin
     id 14 
     name lowerneck
     direction -0.00866847 0.995978 0.0891737   
     length 1.3959   
     axis 0 0 0   XYZ
    dof rx ry rz
    limits (-20.0 45.0)
           (-30.0 30.0)
           (-30.0 30.0)
  end
  begin
     id 15 
     name upperneck
     direction 0.0680679 0.992203 0.104404   
     length 1.39452   
     axis 0 0 0   XYZ
    dof rx ry rz
    limits (-20.0 45.0)
           (-30.0 30.0)
           (-30.0 30.0)
  end
  begin
     id 16
     name head
     direction 0.0242216 0.999358 0.0264054  
     length 1.40433  
     axis 0 0 0   XYZ
    dof rx ry rz
    limits (-20.0 45.0)
           (-30.0 30.0)
           (-30.0 30.0)
  end
  begin
     id 17 
     name lclavicle
     direction 0.929368 0.362991 -0.0671771  
     length 3.04887  
     axis 0 0 0   XYZ
    dof ry rz
    limits (-20.0 10.0)
           (0.0 20.0)
  end
  begin
     id 18 
     name lhumerus
     direction 1 -4.48967e-011 -7.13741e-028   
     length 4.77195   
     axis -180 -30 -90   XYZ
    dof rx ry rz
    limits (-60.0 90.0)
           (-90.0 90.0)
           (-90.0 90.0)
  end
  begin
     id 19
     name lradius
     direction 1 -4.48977e-011 3.60404e-027   
     length 2.98444   
     axis -180 -30 -90   XYZ
    dof rx
    limits (-10.0 170.0)
  end
  begin
     id 20
     name lwrist
     direction 1 -4.48997e-011 7.54877e-027   
     length 1.49222   
     axis -7.18178e-015 90 90   XYZ
    dof ry
    limits (-180.0 0.0)
 end
  begin
     id 21 
     name lhand
     direction 1 -4.489e-011 1.51105e-026   
     length 0.992285   
     axis -9.63605e-015 90 90   XYZ
    dof rx rz
    limits (-90.0 90.0)
           (-45.0 45.0)
  end
  begin
     id 22 
     name lfingers
     direction 1 -4.48998e-011 3.01948e-026   
     length 0.800006   
     axis -1.92718e-014 90 90   XYZ
    dof rx
    limits (0.0 90.0)
  end
  begin
     id 23
     name lthumb
     direction 0.707107 -6.34881e-011 0.707107   
     length 1.14865   
     axis -90 45 -3.53137e-014   XYZ
    dof rx rz
    limits (-45.0 45.0)
           (-45.0 45.0)
  end
  begin
     id 24 
     name rclavicle
     direction -0.945672 0.324529 0.0196374   
     length 3.4236  
     axis 0 0 0   XYZ 
    dof ry rz
    limits (-10.0 20.0)
           (-20.0 0.0)
  end
  begin
     id 25 
     name rhumerus
     direction -1 -4.4896e-011 1.02757e-029  
     length 4.62052   
     axis -180 30 90   XYZ
    dof rx ry rz
    limits (-90.0 60.0)
           (-90.0 90.0)
           (-90.0 90.0)
  end
  begin
     id 26 
     name rradius
     direction -1 -4.48982e-011 3.85962e-027   
     length 2.95332   
     axis -180 30 90   XYZ
    dof rx
    limits (-10.0 170.0)
  end
  begin
     id 27 
     name rwrist
     direction -1 -4.48961e-011 7.55118e-027   
     length 1.47666   
     axis -7.18178e-015 -90 -90   XYZ
    dof ry
    limits (-180.0 0.0)
  end
  begin
     id 28
     name rhand
     direction -1 -4.48984e-011 1.50994e-026   
     length 0.990956   
     axis -9.63605e-015 -90 -90   XYZ
    dof rx rz
    limits (-90.0 90.0)
           (-45.0 45.0)
  end
  begin
     id 29
     name rfingers
     direction -1 -4.4892e-011 3.02158e-026   
     length 0.798934   
     axis -1.92718e-014 -90 -90   XYZ
    dof rx
    limits (0.0 90.0)
  end
  begin
     id 30
     name rthumb
     direction -0.707107 -6.34916e-011 0.707107   
     length 1.14711   
     axis -90 -45 3.53137e-014   XYZ
    dof rx rz
    limits (-45.0 45.0)
           (-45.0 45.0)
  end
:hierarchy
  begin
    root lhipjoint rhipjoint lowerback
    lhipjoint lfemur
    lfemur ltibia
    ltibia lfoot
    lfoot ltoes
    rhipjoint rfemur
    rfemur rtibia
    rtibia rfoot
    rfoot rtoes
    lowerback upperback
    upperback thorax
    thorax lowerneck lclavicle rclavicle
    lowerneck upperneck
    upperneck head
    lclavicle lhumerus
    lhumerus lradius
    lradius lwrist
    lwrist lhand lthumb
    lhand lfingers
    rclavicle rhumerus
    rhumerus rradius
    rradius rwrist
    rwrist rhand rthumb
    rhand rfingers
  end

#!OML:ASF H:\ManfredObstacles\Project 1\Capture day 1\Session 1\Male.ASF
:FULLY-SPECIFIED
:DEGREES
196
root 0.265794 16.296 24.346 -169.795 -9.37734 -176.477
lowerback -9.78523 -2.34143 -1.30852
upperback 1.8699 -3.1238 1.89571
thorax 7.65396 -1.63977 2.22703
lowerneck 3.15855 -3.28266 -4.85938
upperneck -10.9053 -4.20897 10.4036
head -3.40663 -2.58471 4.13828
rclavicle -1.59028e-015 -9.34288e-015
rhumerus -36.5578 -22.3053 -74.9946
rradius 28.5476
rwrist 32.9275
rhand -2.53756 -5.58568
rfingers 7.12502
rthumb 23.1577 -34.2137
lclavicle -1.59028e-015 -9.34288e-015
lhumerus -27.3 24.1349 79.1803
lradius 13.6018
lwrist -41.3996
lhand -8.57251 9.34204
lfingers 7.12502
lthumb 17.3579 38.587
rfemur -31.5274 -3.83302 22.4103
rtibia 29.5625
rfoot -11.9538 6.02496
rtoes 1.06573
lfemur -1.90699 -1.46993 -16.7219
ltibia 7.24594
lfoot -4.49958 -15.6
ltoes 12.7364
197
root 0.280972 16.3017 24.301 -169.666 -9.44712 -176.254
lowerback -9.68852 -2.34743 -1.08003
upperback 1.82497 -3.17086 1.99196
thorax 7.54557 -1.65598 2.19647
lowerneck 3.12913 -3.28604 -4.88211
upperneck -10.7985 -4.21704 10.3401
head -3.37032 -2.57834 4.11899
rclavicle -1.69961e-014 2.98177e-015
rhumerus -36.497 -21.9173 -75.1804
rradius 28.7713
rwrist 32.741
rhand -2.62739 -5.53458
rfingers 7.12502
rthumb 23.0715 -34.1734
lclavicle -1.69961e-014 2.98177e-015
lhumerus -26.7721 22.7406 80.1423
lradius 14.0521
lwrist -39.9935
lhand -8.67905 9.427
lfingers 7.12502
lthumb 17.2554 38.6809
rfemur -31.5791 -3.94819 22.7589
rtibia 29.656
rfoot -11.9261 6.24215
rtoes 0.177175
lfemur -1.75014 -1.63782 -16.3553
ltibia 6.7804
lfoot -4.16335 -15.3115
ltoes 13.2023
198
root 0.295857 16.3035 24.2594 -169.429 -9.46365 -176.546
lowerback -9.6234 -2.3875 -1.34109
upperback 1.7752 -3.18259 1.91747
thorax 7.46594 -1.66903 2.26608
lowerneck 3.11659 -3.30181 -4.77708
upperneck -10.7317 -4.24003 10.2022
head -3.35272 -2.58276 4.05764
rclavicle -2.5345e-015 2.5842e-014
rhumerus -36.4374 -21.6925 -75.3324
rradius 28.9586
rwrist 32.545
rhand -2.57224 -5.54138
rfingers 7.12502
rthumb 23.1244 -34.1736
lclavicle -2.5345e-015 2.5842e-014
lhumerus -26.2275 21.3112 81.0277
lradius 14.4714
lwrist -38.6368
lhand -8.9755 8.88528
lfingers 7.12502
lthumb 16.97 38.164
rfemur -31.6608 -4.18634 22.5786
rtibia 29.6566
rfoot -12.0346 6.5096
rtoes 0.242198
lfemur -1.80123 -1.84788 -16.5926
ltibia 6.92002
lfoot -4.47639 -15.1514
ltoes 12.7123
199
root 0.312913 16.2961 24.2155 -169.226 -9.41765 -176.876
lowerback -9.56996 -2.42927 -1.61577
upperback 1.75793 -3.19144 1.79465
thorax 7.42563 -1.67993 2.2919
lowerneck 2.91289 -3.27822 -4.74492
upperneck -10.4946 -4.20951 10.2161
head -3.2505 -2.55902 4.04477
rclavicle 5.31749e-015 -9.14409e-015
rhumerus -36.2913 -21.5366 -75.5453
rradius 29.0798
rwrist 32.2465
rhand -2.41198 -5.67895
rfingers 7.12502
rthumb 23.2782 -34.2918
lclavicle 5.31749e-015 -9.14409e-015
lhumerus -25.688 19.737 81.8428
lradius 14.9168
lwrist -37.1968
lhand -8.95102 8.89284
lfingers 7.12502
lthumb 16.9936 38.1695
rfemur -31.7488 -4.3725 22.3929
rtibia 29.5948
rfoot -13.2157 6.73122
rtoes 14.5474
lfemur -1.9743 -2.00629 -16.8715
ltibia 7.40966
lfoot -4.96284 -15.0923
ltoes 11.9616
200
root 0.331203 16.2813 24.1703 -169.106 -9.35458 -176.857
lowerback -9.54075 -2.43343 -1.59215
upperback 1.77547 -3.20029 1.79447
thorax 7.42674 -1.68344 2.27774
lowerneck 2.58109 -3.20441 -4.94794
upperneck -10.1423 -4.11239 10.4612
head -3.08614 -2.49975 4.13458
rclavicle -1.6201e-014 2.38542e-015
rhumerus -36.0278 -21.2833 -75.7772
rradius 29.1631
rwrist 31.902
rhand -2.23975 -5.85356
rfingers 7.12502
rthumb 23.4434 -34.4454
lclavicle -1.6201e-014 2.38542e-015
lhumerus -25.1962 18.2183 82.6385
lradius 15.4034
lwrist -35.8006
lhand -8.82699 9.20616
lfingers 7.12502
lthumb 17.113 38.4725
rfemur -31.8822 -4.30099 22.5593
rtibia 29.5745
rfoot -14.5915 6.60991
rtoes 31.5246
lfemur -2.0717 -2.08223 -16.7548
ltibia 7.72997
lfoot -5.22642 -14.9806
ltoes 11.2413
201
root 0.349636 16.2675 24.1275 -169.012 -9.32933 -176.613
lowerback -9.52313 -2.42931 -1.31663
upperback 1.81451 -3.23674 1.86277
thorax 7.44853 -1.69272 2.18881
lowerneck 2.33679 -3.1013 -5.17606
upperneck -9.96224 -3.97676 10.6561
head -2.99226 -2.42483 4.21935
rclavicle 1.53064e-014 -5.56597e-015
rhumerus -35.8176 -21.1428 -75.9718
rradius 29.2306
rwrist 31.9257
rhand -2.24307 -5.7514
rfingers 7.12502
rthumb 23.4402 -34.3436
lclavicle 1.53064e-014 -5.56597e-015
lhumerus -24.6258 16.986 83.3569
lradius 15.7624
lwrist -34.602
lhand -8.99148 8.83535
lfingers 7.12502
lthumb 16.9546 38.1153
rfemur -31.9651 -4.05338 22.8878
rtibia 29.6229
rfoot -16.1066 6.9504
rtoes 42.9073
lfemur -2.11446 -2.15095 -16.3914
ltibia 7.90194
lfoot -5.24654 -14.8025
ltoes 10.878
202
root 0.371353 16.2715 24.0857 -168.924 -9.34345 -176.529
lowerback -9.43314 -2.47164 -1.18712
upperback 1.85337 -3.31122 1.87156
thorax 7.43521 -1.72438 2.11589
lowerneck 2.25281 -3.01842 -5.25262
upperneck -9.97621 -3.86644 10.7171
head -2.98814 -2.37097 4.24713
rclavicle 2.68359e-014 7.7526e-015
rhumerus -35.6641 -21.2619 -76.113
rradius 29.1686
rwrist 32.219
rhand -2.36896 -5.59617
rfingers 7.12502
rthumb 23.3195 -34.2038
lclavicle 2.68359e-014 7.7526e-015
lhumerus -24.008 16.0054 83.9407
lradius 16.0594
lwrist -33.6344
lhand -9.16616 8.47294
lfingers 7.12502
lthumb 16.7865 37.7673
rfemur -31.8699 -3.76349 22.9724
rtibia 29.7414
rfoot -13.4533 6.84938
rtoes 10.0887
lfemur -2.17448 -2.28889 -16.175
ltibia 8.07542
lfoot -5.1766 -14.5712
ltoes 11.4588
203
root 0.395386 16.2883 24.0411 -168.723 -9.27272 -176.772
lowerback -9.40341 -2.51844 -1.44372
upperback 1.81942 -3.33389 1.79748
thorax 7.39375 -1.74296 2.1802
lowerneck 2.32244 -2.99688 -5.20341
upperneck -10.0034 -3.83648 10.6926
head -3.01206 -2.35897 4.23309
rclavicle 3.21037e-014 6.36111e-015
rhumerus -35.6201 -21.2184 -76.2378
rradius 29.1318
rwrist 32.0891
rhand -2.30555 -5.7682
rfingers 7.12502
rthumb 23.3803 -34.3681
lclavicle 3.21037e-014 6.36111e-015
lhumerus -23.59 14.7997 84.5196
lradius 16.4941
lwrist -32.5429
lhand -9.11722 8.71051
lfingers 7.12502
lthumb 16.8336 38.0009
rfemur -31.8697 -3.51561 22.7441
rtibia 29.9282
rfoot -13.9307 6.66784
rtoes 12.16
lfemur -2.27114 -2.4037 -16.3146
ltibia 8.20401
lfoot -5.31974 -14.31
ltoes 11.394
204
root 0.41851 16.2885 23.993 -168.505 -9.10855 -177.075
lowerback -9.40587 -2.54873 -1.74856
upperback 1.73927 -3.32663 1.70256
thorax 7.32146 -1.74752 2.25416
lowerneck 2.39249 -2.9673 -5.16147
upperneck -9.88549 -3.79737 10.6401
head -2.99417 -2.33395 4.2078
rclavicle 9.29318e-015 -1.03368e-014
rhumerus -35.7432 -21.2243 -76.2548
rradius 29.1144
rwrist 32.162
rhand -2.25137 -5.79754
rfingers 7.12502
rthumb 23.4323 -34.3908
lclavicle 9.29318e-015 -1.03368e-014
lhumerus -23.3344 13.4973 85.0363
lradius 16.9142
lwrist -31.4869
lhand -8.93117 9.0519
lfingers 7.12502
lthumb 17.0127 38.3269
rfemur -32.048 -3.3996 22.5579
rtibia 30.1148
rfoot -14.2138 6.56541
rtoes 10.5448
lfemur -2.30033 -2.44075 -16.5379
ltibia 8.27692
lfoot -5.45679 -14.1204
ltoes 10.5496
205
root 0.442745 16.2764 23.9456 -168.461 -9.06256 -177.085
lowerback -9.27895 -2.60056 -1.72822
upperback 1.73905 -3.40024 1.71013
thorax 7.25196 -1.78265 2.24401
lowerneck 2.33773 -2.88574 -5.19267
upperneck -9.76419 -3.69167 10.5909
head -2.95813 -2.27199 4.19156
rclavicle 1.43125e-014 3.97569e-015
rhumerus -35.7324 -21.3133 -76.2455
rradius 29.0197
rwrist 32.4161
rhand -2.26268 -5.66606
rfingers 7.12502
rthumb 23.4214 -34.2607
lclavicle 1.43125e-014 3.97569e-015
lhumerus -22.9391 12.7134 85.4365
lradius 17.1575
lwrist -30.8656
lhand -8.94439 8.96602
lfingers 7.12502
lthumb 17 38.2421
rfemur -32.0698 -3.25673 22.6609
rtibia 30.2503
rfoot -14.3358 6.50877
rtoes 8.65038
lfemur -2.25598 -2.54018 -16.4049
ltibia 8.4271
lfoot -5.48759 -14.0703
ltoes 9.27504
206
root 0.469868 16.2722 23.8988 -168.471 -9.13588 -176.85
lowerback -9.14548 -2.64956 -1.44818
upperback 1.78283 -3.50869 1.78991
thorax 7.216 -1.82745 2.15812
lowerneck 2.21485 -2.81741 -5.19255
upperneck -9.69893 -3.60431 10.5121
head -2.9272 -2.22073 4.16141
rclavicle 3.06625e-014 -8.34896e-015
rhumerus -35.6641 -21.0893 -76.3899
rradius 29.0745
rwrist 32.1335
rhand -2.08979 -5.7221
rfingers 7.12502
rthumb 23.5873 -34.2955
lclavicle 3.06625e-014 -8.34896e-015
lhumerus -22.4974 12.1448 85.7886
lradius 17.3675
lwrist -30.3987
lhand -9.10259 8.71295
lfingers 7.12502
lthumb 16.8477 38.0021
rfemur -31.9473 -2.99122 22.9713
rtibia 30.3255
rfoot -14.5171 6.37694
rtoes 10.7906
lfemur -2.3223 -2.70466 -15.9744
ltibia 8.78478
lfoot -5.57431 -14.0398
ltoes 7.96594
